<mxfile
  host="Electron" 
  agent="Mozilla/5.0 (Macintosh; Intel Mac OS X 10_15_7) AppleWebKit/537.36 (KHTML, like Gecko) draw.io/25.0.2 Chrome/128.0.6613.186 Electron/32.2.5 Safari/537.36" 
  version="25.0.2"
  >
  <diagram
    name="-"
    >
    <mxGraphModel
      grid="1" 
      gridSize="10" 
      guides="1" 
      tooltips="1" 
      connect="1" 
      arrows="1" 
      fold="1" 
      page="1" 
      pageScale="1" 
      pageWidth="1" 
      pageHeight="1" 
      math="0" 
      shadow="0"
      >
      <root>
        <mxCell
          id="page"
          />
        <mxCell
          id="root" 
          parent="page"
          />
        <mxCell
          style="verticalAlign=top;aspect=fixed;align=center;spacingLeft=5;spacingRight=5;spacingBottom=5;strokeColor=none;" 
          id="shape_" 
          parent="root" 
          value=" " 
          vertex="1"
          >
          <mxGeometry
            as="geometry" 
            width="120" 
            height="120" 
            x="0" 
            y="0"
            />
          </mxCell>
        <mxCell
          style="rounded=1;whiteSpace=wrap;verticalAlign=top;align=center;sketch=0;html=1;labelPosition=center;verticalLabelPosition=bottom;spacingTop=-6;fontSize=11;fontStyle=1;fontColor=#999999;shape=image;aspect=fixed;imageAspect=0;image=data:image/svg+xml,PHN2ZyB4bWxucz0iaHR0cDovL3d3dy53My5vcmcvMjAwMC9zdmciIGlkPSJzdmcyNzk1MiIgdmVyc2lvbj0iMS4xIiB2aWV3Qm94PSIwIDAgMTcwLjIyMjY5IDE3OS40NDAwOCIgaGVpZ2h0PSIxNzkuNDQwMDhtbSIgd2lkdGg9IjE3MC4yMjI2OW1tIj4mI3hhOyAgJiN4YTsgIDxkZWZzIGlkPSJkZWZzMjc5NDkiLz4mI3hhOyAgPGcgdHJhbnNmb3JtPSJ0cmFuc2xhdGUoLTI2LjAyOTQxOSwtNTAuNTE5NTMpIiBpZD0ibGF5ZXIxIj4mI3hhOyAgICA8cGF0aCBkPSJNIDY5MS4zODg2Nyw1MzUuMDAxOTUgNDIwLjM5ODQ0LDgwNi42NjQwNiAxNDkuNDIzODMsNTM1LjY4OTQ1IDEyMy43NzE0OCw1NjEuMzQ3NjYgMjE0LjQ3ODUyLDY1Mi4wNTQ2OSA5OC4zNzg5MDYsNzA5LjE4MzU5IDQyMS44MzAwOCw4NjkuMTM4NjcgNzQxLjc0MDIzLDcwOC40NzQ2MSA2MjYuMDM5MDYsNjUxLjg4MjgxIDcxNy4wNzAzMSw1NjAuNjI1IFogTSA0MjAuMzk4NjMsMTkwLjkzOTk2IDEzNS43MzA4MSw0NzUuNjAwNDEgMTQ4LjUyMzYyLDQ4OC40MzAxMyA0MjAuMzk4NjMsNzYxLjA0MzMgNzA1Ljg0MTU2LDQ3NS42MDA0MSBaIG0gMC4wMzAyLDUxLjI3NDYxIEwgNjU0LjQ5Mzg0LDQ3NS42MzczIDQyMC40Mjg4Nyw3MDkuNjk0OSAxODcuMDEzNTIsNDc1LjYyOTkzIFoiIHRyYW5zZm9ybT0ic2NhbGUoMC4yNjQ1ODMzMykiIHN0eWxlPSJjb2xvcjojMDAwMDAwO29wYWNpdHk6MTtmaWxsOiM0Mjg1ZjQ7ZmlsbC1vcGFjaXR5OjE7c3Ryb2tlLXdpZHRoOjMuNzc5NTM7LWlua3NjYXBlLXN0cm9rZTpub25lIiBpZD0icGF0aDI4MDkyIi8+JiN4YTsgIDwvZz4mI3hhOzwvc3ZnPg;strokeColor=none;" 
          id="bare_metal_solution_" 
          parent="shape_" 
          value=" " 
          vertex="1"
          >
          <mxGeometry
            as="geometry" 
            width="60" 
            height="60" 
            x="30" 
            y="30"
            />
          </mxCell>
        </root>
      </mxGraphModel>
    </diagram>
  </mxfile>